<?xml version="1.0" standalone="no"?>
<!DOCTYPE svg PUBLIC "-//W3C//DTD SVG 20010904//EN"
 "http://www.w3.org/TR/2001/REC-SVG-20010904/DTD/svg10.dtd">
<svg version="1.0" xmlns="http://www.w3.org/2000/svg"
 width="50.000000pt" height="50.000000pt" viewBox="0 0 50.000000 50.000000"
 preserveAspectRatio="xMidYMid meet">

<g transform="translate(0.000000,50.000000) scale(0.100000,-0.100000)"
fill="#000000" stroke="none">
<path d="M0 250 l0 -250 250 0 250 0 0 250 0 250 -250 0 -250 0 0 -250z m203
154 c3 -4 -5 -21 -18 -39 -25 -32 -25 -32 -5 -50 19 -18 20 -17 20 3 0 29 10
52 24 52 7 0 11 -34 12 -108 1 -59 6 -118 11 -132 10 -22 11 -19 19 35 4 33 7
93 6 133 -1 57 2 72 14 72 13 0 19 -24 15 -57 -2 -18 9 -16 30 3 17 16 17 18
-8 50 -14 19 -23 37 -20 40 7 7 46 -2 67 -15 18 -12 20 -72 3 -89 -9 -9 -11
-26 -7 -47 4 -25 2 -35 -11 -42 -15 -9 -15 -11 -1 -22 14 -12 14 -16 1 -42 -8
-15 -15 -37 -15 -49 0 -27 -26 -26 -42 3 l-12 22 -6 -25 c-8 -32 -39 -39 -47
-11 -6 25 -21 27 -29 6 -4 -8 -12 -15 -20 -15 -17 0 -19 36 -1 43 7 3 5 6 -6
6 -27 1 -38 42 -18 65 9 11 11 16 5 13 -17 -10 -25 20 -18 59 4 24 2 35 -8 39
-23 9 -21 61 4 84 21 21 49 27 61 15z"/>
<path d="M186 253 c-4 -9 -2 -21 4 -27 7 -7 10 -2 10 17 0 31 -5 34 -14 10z"/>
<path d="M307 241 c-3 -12 -1 -21 3 -21 15 0 23 21 12 32 -6 6 -11 2 -15 -11z"/>
<path d="M191 176 c-9 -10 -8 -15 4 -20 10 -4 15 1 15 14 0 24 -4 25 -19 6z"/>
<path d="M300 183 c0 -6 -3 -20 -6 -30 -7 -17 -6 -17 12 -1 14 14 16 21 6 30
-8 8 -12 9 -12 1z"/>
</g>
</svg>
